<?xml version="1.0" encoding="UTF-8" standalone="no"?>
<!DOCTYPE svg PUBLIC "-//W3C//DTD SVG 1.1//EN" "http://www.w3.org/Graphics/SVG/1.1/DTD/svg11.dtd">
<!-- Created with Vectornator (http://vectornator.io/) -->
<svg height="100%" stroke-miterlimit="10" style="fill-rule:nonzero;clip-rule:evenodd;stroke-linecap:round;stroke-linejoin:round;" version="1.1" viewBox="0 0 1024 1024" width="100%" xml:space="preserve" xmlns="http://www.w3.org/2000/svg" xmlns:vectornator="http://vectornator.io" xmlns:xlink="http://www.w3.org/1999/xlink">
<defs/>
<g id="Layer-1" vectornator:layerName="Layer 1">
<g opacity="1" vectornator:layerName="Group 1">
<path d="M506.411 65.7507C506.411 65.7507 507.799 140.065 481.78 257.239C455.761 374.413 402.335 534.448 292.704 705.889C295.004 707.284 326.884 727.01 364.865 772.157C402.845 817.304 446.926 887.871 473.628 990.95L476.271 990.95L478.914 990.95L480.429 821.56L481.944 652.17C496.979 642.49 512.013 624.333 523.287 608.596C534.562 592.858 542.077 579.541 542.077 579.541L543.582 785.246L545.086 990.95L547.729 990.95L550.372 990.95C577.073 887.877 621.151 817.31 659.13 772.163C697.109 727.016 728.99 707.288 731.296 705.889C621.665 534.448 568.239 374.413 542.22 257.239C516.201 140.065 517.589 65.7507 517.589 65.7507C517.589 65.7507 514.795 58.1686 512 58.1686C509.205 58.1686 506.411 65.7507 506.411 65.7507Z" fill="#000000" fill-rule="nonzero" opacity="1" stroke="none" vectornator:layerName="Curve 2"/>
<path d="M507.692 193.278C507.692 193.278 508.763 250.635 488.682 341.071C468.6 431.508 427.365 555.024 342.75 687.344C344.525 688.421 369.131 703.645 398.445 738.49C427.759 773.335 447.055 804.221 473.706 907.104C473.706 907.104 475.025 909.341 476.344 909.341C477.663 909.341 478.982 907.104 478.982 907.104L484.176 778.611L488.808 645.883C500.412 638.412 512.015 624.398 520.717 612.252C529.419 600.106 535.219 589.828 535.219 589.828L539.843 746.602L545.029 907.104C545.029 907.104 546.348 909.341 547.667 909.341C548.986 909.341 550.305 907.104 550.305 907.104C576.954 804.226 596.249 773.341 625.562 738.495C654.875 703.65 679.481 688.424 681.261 687.344C596.646 555.024 555.411 431.508 535.329 341.071C515.247 250.635 516.319 193.278 516.319 193.278C516.319 193.278 514.162 187.426 512.005 187.426C509.849 187.426 507.692 193.278 507.692 193.278Z" fill="#741616" fill-rule="nonzero" opacity="1" stroke="none" vectornator:layerName="Curve 3"/>
</g>
</g>
</svg>
